PathFileType	4	(X/Y/Z)	 s05c0203.trc
DataRate	CameraRate	NumFrames	NumMarkers	Units	OrigDataRate	OrigDataStartFrame	OrigNumFrames
200	200	4	47	mm	200	1501	2000
Frame#	Time	racr			lacr			c7			jug			rlel			rdr			llel			ldr			s2			lic			ric			lasi			rasi			rpsi			lpsi			rgt			lgt			rth1			rth2			rth3			rth4			rlfc			rsh1			rsh2			rsh3			rsh4			rlmal			rcal			rtoe			rmt5			lth1			lth2			lth4			lth3			llfc			lmfc			lsh1			lsh2			lsh3			lsh4			llmal			lcal			ltoe			lmt5			SBIKE			LBIKE			RBIKE			
		X1	Y1	Z1	X2	Y2	Z2	X3	Y3	Z3	X4	Y4	Z4	X5	Y5	Z5	X6	Y6	Z6	X7	Y7	Z7	X8	Y8	Z8	X9	Y9	Z9	X10	Y10	Z10	X11	Y11	Z11	X12	Y12	Z12	X13	Y13	Z13	X14	Y14	Z14	X15	Y15	Z15	X16	Y16	Z16	X17	Y17	Z17	X18	Y18	Z18	X19	Y19	Z19	X20	Y20	Z20	X21	Y21	Z21	X22	Y22	Z22	X23	Y23	Z23	X24	Y24	Z24	X25	Y25	Z25	X26	Y26	Z26	X27	Y27	Z27	X28	Y28	Z28	X29	Y29	Z29	X30	Y30	Z30	X31	Y31	Z31	X32	Y32	Z32	X33	Y33	Z33	X34	Y34	Z34	X35	Y35	Z35	X36	Y36	Z36	X37	Y37	Z37	X38	Y38	Z38	X39	Y39	Z39	X40	Y40	Z40	X41	Y41	Z41	X42	Y42	Z42	X43	Y43	Z43	X44	Y44	Z44	X45	Y45	Z45	X46	Y46	Z46	X47	Y47	Z47	
1501	7.5050	490.858255	1276.699222	-149.578090	495.012629	1254.210381	-400.815834	468.260769	1347.739507	-283.564255	408.009284	1197.155362	-269.832900	502.553468	1100.467296	72.310532	663.882642	957.571837	-28.237605	529.640015	1097.857499	-644.824889	671.773128	977.470120	-468.551041	-115.695715	1187.008046	-248.775034	14.081280	1203.243661	-394.754433	41.613365	1200.758733	-113.193189	60.479979	1154.506766	-356.654091	79.850646	1138.084300	-143.826328	-79.014024	1234.451854	-206.083272	-84.881419	1241.196242	-290.661449	-22.300104	1059.555222	-91.599823	-28.776665	1124.467421	-428.843591	37.559729	956.108684	-77.539287	90.976256	884.832582	-76.728540	101.393925	797.577852	-84.840321	124.451379	898.992306	-83.296107	168.650907	662.591939	-107.740359	114.585105	568.626547	-80.933156	114.999387	480.483739	-93.555956	74.943275	404.698746	-98.028938	145.013673	476.249774	-116.995203	53.245060	269.950152	-105.826052	-18.105977	251.972481	-154.441376	263.698641	158.252926	-148.663969	159.081308	159.583618	-85.122307	95.296513	1071.675477	-433.416841	180.633576	1080.616684	-424.425034	186.359923	1112.121292	-404.177112	262.825329	1042.670196	-426.241107	398.711934	984.494170	-386.749502	383.053248	960.679702	-275.416320	328.657046	889.640432	-413.224531	302.672379	806.408826	-412.830285	237.128923	746.575467	-419.113403	330.258517	788.818659	-393.198393	177.163948	629.241903	-423.235975	104.825268	611.456675	-385.736432	369.287920	482.836756	-388.537654	261.262652	501.306810	-453.056503	-259.394078	895.260925	-279.953567	-43.515076	85.188901	-474.731348	-51.856384	80.182517	-77.254186	
1502	7.5100	491.932802	1275.633536	-150.934294	494.274922	1253.339029	-401.599550	468.569707	1347.109586	-284.512951	407.888860	1196.685401	-270.763938	503.051390	1101.393521	72.717234	663.409842	957.379634	-27.253235	529.920807	1097.193874	-645.769279	671.962890	977.339959	-469.024930	-115.831850	1188.526618	-247.863495	13.815401	1204.895921	-394.598216	41.570572	1200.900080	-112.987612	59.836706	1155.371388	-356.996429	79.648310	1138.327647	-143.679087	-78.755708	1235.577734	-205.867151	-84.925287	1242.721688	-290.251378	-22.001762	1060.126947	-91.709513	-29.296204	1125.900939	-428.489160	40.547418	957.095896	-78.176038	95.869316	887.272373	-78.132841	108.237608	800.239804	-85.664094	128.725911	902.206148	-85.888633	176.482949	666.244690	-108.006945	119.431262	573.737023	-81.321589	116.994604	485.652906	-94.046801	74.519422	411.168120	-98.692281	146.927941	480.367385	-117.388095	48.378173	276.985442	-106.506829	-23.416693	261.963053	-155.670210	254.788385	158.192613	-148.213836	149.910102	163.278891	-85.513959	94.600978	1071.700139	-434.089871	180.035249	1079.427845	-424.953199	186.184020	1110.750277	-404.566640	261.749858	1040.338594	-426.920295	396.536320	980.023054	-387.853932	381.103156	955.893576	-276.775769	326.628320	883.797075	-414.534822	301.764741	800.219048	-413.964500	237.122077	739.562776	-420.228204	329.618369	782.889044	-394.344232	179.375671	621.051495	-424.370918	107.221044	599.737092	-386.632425	377.943172	484.939289	-388.667027	269.214509	497.181236	-453.547260	-259.516558	895.293549	-280.023867	-43.508333	85.165048	-474.759534	-51.872189	80.230368	-77.256790	
1503	7.5150	492.942336	1274.486204	-152.115065	495.359338	1252.754609	-403.008501	468.874621	1346.618726	-285.353510	409.238001	1195.692798	-272.402224	503.382640	1102.209712	73.162578	663.013633	957.205880	-26.046297	530.111954	1096.701329	-646.526676	672.138291	977.071040	-469.567958	-116.050900	1189.764751	-247.813250	13.528167	1206.417410	-394.459164	41.581001	1200.999245	-112.834685	59.432256	1155.969139	-357.440631	79.587881	1138.599967	-143.594490	-78.654721	1236.616336	-205.531113	-85.068258	1243.909767	-289.634292	-21.567421	1060.884794	-91.785074	-29.921142	1127.000276	-428.085107	44.058243	958.278018	-78.882899	101.299020	890.068169	-79.554755	115.837652	803.375977	-86.496404	133.493418	905.764920	-88.595971	185.047690	670.290214	-108.287387	125.121440	579.290130	-81.519756	119.805632	491.386447	-94.249919	74.934551	418.265576	-98.948394	149.485778	485.094738	-117.710788	44.057728	285.082094	-106.673794	-27.973625	272.659300	-156.499252	245.976132	158.406300	-148.212829	141.287935	167.651390	-85.954347	93.920279	1071.186593	-434.924537	179.971121	1078.063529	-427.243433	186.164949	1108.656584	-405.125009	260.570766	1036.996356	-427.473540	392.902796	974.578049	-389.584310	378.676359	950.204420	-278.267310	324.211087	876.848360	-415.623646	300.704700	792.532244	-414.961068	237.190192	731.114191	-421.614934	328.966077	775.905782	-395.616983	181.478317	611.634913	-425.487798	110.042135	587.378940	-388.035936	386.114374	486.339405	-388.879335	276.939677	492.456208	-454.166895	-259.583831	895.344501	-280.219937	-43.508885	85.135125	-474.782936	-51.857454	80.231950	-77.306431	
1504	7.5200	492.690119	1273.736307	-151.454323	494.965517	1252.175167	-403.775137	469.164131	1346.239109	-286.084792	408.315910	1195.816537	-272.754153	503.502481	1102.936106	73.568642	662.692153	957.157947	-24.721777	529.977224	1096.341649	-647.099490	672.291827	976.816318	-470.057737	-116.269521	1190.833612	-247.829880	13.239476	1207.586752	-394.329436	41.638787	1200.977118	-112.729672	58.811837	1156.235310	-357.582470	79.602816	1138.659734	-143.456121	-78.521414	1237.489080	-205.242045	-85.066343	1245.084993	-289.285767	-20.827104	1061.370580	-91.673819	-30.649239	1127.727508	-427.645351	48.019413	959.659580	-79.612026	107.193746	893.093678	-80.998401	124.072688	806.893032	-87.610946	138.817329	909.602372	-91.301874	193.985650	674.674988	-108.615559	131.395218	585.219489	-81.708336	123.270587	497.508005	-94.463663	76.206621	425.849306	-98.901096	152.598437	490.377484	-118.084821	40.576075	293.895329	-106.555962	-31.793617	284.052597	-156.830040	237.259667	158.746750	-148.774305	133.118686	172.614351	-86.284548	93.315207	1070.076400	-435.898674	179.418790	1075.407744	-427.981565	186.145682	1105.817911	-405.966234	259.188841	1032.779780	-428.112584	390.605708	968.258536	-390.728865	375.866118	943.533740	-279.906971	321.629568	868.867559	-416.677657	299.845375	784.234471	-416.468420	237.452723	721.626582	-423.110771	328.293206	768.006487	-396.805697	183.780903	601.073474	-426.405218	113.041544	573.898431	-388.863941	393.768622	486.848887	-389.180129	284.442683	486.917161	-454.785148	-259.730143	895.397008	-280.351547	-43.506931	85.108527	-474.831261	-51.849799	80.216050	-77.347191	
